# xmcd CD database file
#
# Track frame offsets:
#	183
#	10143
#	24770
#	39573
#	51308
#	64188
#	74983
#	87635
#	99465
#	114108
#	127025
#	138663
#	153233
#	162970
#	174555
#	188880
#
# Disc length: 2729 seconds
#
# Revision: 1
# Processed by: cddbd v1.5.1PL0 Copyright (c) Steve Scherf et al.
# Submitted via: CDex 1.51
#
DISCID=de0aa710
DTITLE=Various Artist - Country Romance - Country Lovesongs
DYEAR=1990
DGENRE=Country
TTITLE0=Bobby Bare - Book Of Love
TTITLE1=Dolly Parton - Sweet Summer Lovin'
TTITLE2=Alabama - Love In The First Degree
TTITLE3=Chet Atkins - You're Just In Love
TTITLE4=Ed Bruce - Old Loves Never Die
TTITLE5=Hank Locklin - Please Help Me, I'm Falling
TTITLE6=Dottie West - Would You Hold It Against Me
TTITLE7=Don Gibson - I Can't Stop Loving You
TTITLE8=Ronnie Milsap - Don't You Know How Much I Love You
TTITLE9=Jim Reeves - Have I Told You Lately That I Love You?
TTITLE10=Bobby Bare - Come Kiss Me Love
TTITLE11=Willie Nelson - What Now My Love
TTITLE12=Dottie West - House Of Love
TTITLE13=Don Gibson - Sea Of Heartbreak
TTITLE14=Charley Pride - Amazing Love
TTITLE15=Dolly Parton - Heartbreaker
EXTD=YEAR: 1990
EXTT0=
EXTT1=
EXTT2=
EXTT3=
EXTT4=
EXTT5=
EXTT6=
EXTT7=
EXTT8=
EXTT9=
EXTT10=
EXTT11=
EXTT12=
EXTT13=
EXTT14=
EXTT15=
PLAYORDER=
